{"title":"Amateur Anal Sex with an Arab Teen","uid":12174719,"size":119297068,"categoryP":"porn","categoryS":"other","magnet":"?xt=urn:btih:2412b12daaaa944898862180cf3355534e0d31fa&amp;dn=Amateur+Anal+Sex+with+an+Arab+Teen&amp;tr=udp%3A%2F%2Ftracker.openbittorrent.com%3A80&amp;tr=udp%3A%2F%2Fopen.demonii.com%3A1337&amp;tr=udp%3A%2F%2Ftracker.coppersurfer.tk%3A6969&amp;tr=udp%3A%2F%2Fexodus.desync.com%3A6969","seeders":29,"leechers":5,"uploader":"pBtu6RHs","files":3,"time":1438291289,"description":"General\nComplete name               : Amtur_Anl_Sx_with_an_Arb_Tn.avi\nFormat                      : AVI\nFormat/Info                 : Audio Video Interleave\nFile size                   : 114 MiB\nDuration                    : 57mn 27s\nOverall bit rate            : 276 Kbps\n\nVideo\nID                          : 0\nFormat                      : MPEG-4 Visual\nFormat profile              : Advanced Simple@L5\nFormat settings, BVOP       : 2\nFormat settings, QPel       : No\nFormat settings, GMC        : No warppoints\nFormat settings, Matrix     : Default (H.263)\nMuxing mode                 : Packed bitstream\nCodec ID                    : XVID\nCodec ID/Hint               : XviD\nDuration                    : 57mn 27s\nBit rate                    : 235 Kbps\nWidth                       : 320 pixels\nHeight                      : 240 pixels\nDisplay aspect ratio        : 4:3\nFrame rate                  : 29.970 fps\nColor space                 : YUV\nChroma subsampling          : 4:2:0\nBit depth                   : 8 bits\nScan type                   : Progressive\nCompression mode            : Lossy\nBits/(Pixel*Frame)          : 0.102\nStream size                 : 96.6 MiB (85%)\nWriting library             : XviD 64\n\nAudio\nID                          : 1\nFormat                      : MPEG Audio\nFormat version              : Version 2\nFormat profile              : Layer 2\nCodec ID                    : 50\nDuration                    : 57mn 27s\nBit rate mode               : Constant\nBit rate                    : 32.0 Kbps\nChannel(s)                  : 1 channel\nSampling rate               : 22.05 KHz\nCompression mode            : Lossy\nStream size                 : 13.1 MiB (12%)\nAlignment                   : Aligned on interleaves\nInterleave, duration        : 53 ms (1.58 video frames)","torrent":{"xt":"urn:btih:2412b12daaaa944898862180cf3355534e0d31fa","amp;dn":"Amateur+Anal+Sex+with+an+Arab+Teen","amp;tr":["udp%3A%2F%2Ftracker.openbittorrent.com%3A80","udp%3A%2F%2Fopen.demonii.com%3A1337","udp%3A%2F%2Ftracker.coppersurfer.tk%3A6969","udp%3A%2F%2Fexodus.desync.com%3A6969"],"infoHash":"2412b12daaaa944898862180cf3355534e0d31fa","infoHashBuffer":{"type":"Buffer","data":[36,18,177,45,170,170,148,72,152,134,33,128,207,51,85,83,78,13,49,250]},"announce":[],"urlList":[]}}